HIERARCHY
ROOT Hips
{
  OFFSET 0.0000 88.6893 0.0000
  CHANNELS 6 Xposition Yposition Zposition Yrotation Xrotation Zrotation
  JOINT Spine
  {
    OFFSET 0.0000 12.5154 0.0000
    CHANNELS 3 Yrotation Xrotation Zrotation
    JOINT Spine1
    {
      OFFSET 0.0000 12.2809 0.0000
      CHANNELS 3 Yrotation Xrotation Zrotation
      JOINT Spine2
      {
        OFFSET 0.0000 11.6295 0.0000
        CHANNELS 3 Yrotation Xrotation Zrotation
        JOINT LeftShoulder
        {
          OFFSET 6.6423 9.7323 0.0000
          CHANNELS 3 Yrotation Xrotation Zrotation
          JOINT LeftArm
          {
            OFFSET 0.0000 12.6995 0.0000
            CHANNELS 3 Yrotation Xrotation Zrotation
            JOINT LeftForeArm
            {
              OFFSET -0.0001 24.6255 0.0000
              CHANNELS 3 Yrotation Xrotation Zrotation
              JOINT LeftHand
              {
                OFFSET 0.0000 27.1163 0.0000
                CHANNELS 3 Yrotation Xrotation Zrotation
                JOINT LeftHandIndex1
                {
                  OFFSET -2.4368 7.6819 0.0980
                  CHANNELS 3 Yrotation Xrotation Zrotation
                  JOINT LeftHandIndex2
                  {
                    OFFSET 0.0000 4.3581 0.0000
                    CHANNELS 3 Yrotation Xrotation Zrotation
                    JOINT LeftHandIndex3
                    {
                      OFFSET 0.0000 2.6812 0.0000
                      CHANNELS 3 Yrotation Xrotation Zrotation
                      End Site
                      {
                        OFFSET 0.0000 1.3566 0.0000
                      }
                    }
                  }
                }
                JOINT LeftHandMiddle1
                {
                  OFFSET -0.5185 7.7415 0.0980
                  CHANNELS 3 Yrotation Xrotation Zrotation
                  JOINT LeftHandMiddle2
                  {
                    OFFSET 0.0000 4.4741 0.0000
                    CHANNELS 3 Yrotation Xrotation Zrotation
                    JOINT LeftHandMiddle3
                    {
                      OFFSET 0.0000 2.9510 0.0000
                      CHANNELS 3 Yrotation Xrotation Zrotation
                      End Site
                      {
                        OFFSET 0.0000 1.4991 0.0000
                      }
                    }
                  }
                }
                JOINT LeftHandPinky1
                {
                  OFFSET 2.9845 6.6773 0.0980
                  CHANNELS 3 Yrotation Xrotation Zrotation
                  JOINT LeftHandPinky2
                  {
                    OFFSET 0.0000 3.3815 0.0000
                    CHANNELS 3 Yrotation Xrotation Zrotation
                    JOINT LeftHandPinky3
                    {
                      OFFSET 0.0000 2.1255 0.0000
                      CHANNELS 3 Yrotation Xrotation Zrotation
                      End Site
                      {
                        OFFSET 0.0000 1.1205 0.0000
                      }
                    }
                  }
                }
                JOINT LeftHandRing1
                {
                  OFFSET 1.3705 7.4277 0.0981
                  CHANNELS 3 Yrotation Xrotation Zrotation
                  JOINT LeftHandRing2
                  {
                    OFFSET 0.0000 4.1790 0.0000
                    CHANNELS 3 Yrotation Xrotation Zrotation
                    JOINT LeftHandRing3
                    {
                      OFFSET 0.0000 2.6951 0.0000
                      CHANNELS 3 Yrotation Xrotation Zrotation
                      End Site
                      {
                        OFFSET 0.0000 1.3500 0.0000
                      }
                    }
                  }
                }
                JOINT LeftHandThumb1
                {
                  OFFSET -2.6510 1.9781 0.0896
                  CHANNELS 3 Yrotation Xrotation Zrotation
                  JOINT LeftHandThumb2
                  {
                    OFFSET 0.0000 3.7696 0.0000
                    CHANNELS 3 Yrotation Xrotation Zrotation
                    JOINT LeftHandThumb3
                    {
                      OFFSET 0.0000 2.8611 0.0000
                      CHANNELS 3 Yrotation Xrotation Zrotation
                      End Site
                      {
                        OFFSET 0.0000 1.7295 0.0000
                      }
                    }
                  }
                }
              }
            }
          }
        }
        JOINT Neck
        {
          OFFSET 0.0000 17.0643 0.0000
          CHANNELS 3 Yrotation Xrotation Zrotation
          JOINT Head
          {
            OFFSET 0.0000 10.4129 0.0000
            CHANNELS 3 Yrotation Xrotation Zrotation
            End Site
            {
              OFFSET 0.0000 8.0220 0.0000
            }
          }
        }
        JOINT RightShoulder
        {
          OFFSET -6.6423 9.7323 0.0000
          CHANNELS 3 Yrotation Xrotation Zrotation
          JOINT RightArm
          {
            OFFSET 0.0000 12.6995 0.0000
            CHANNELS 3 Yrotation Xrotation Zrotation
            JOINT RightForeArm
            {
              OFFSET 0.0000 24.6255 0.0000
              CHANNELS 3 Yrotation Xrotation Zrotation
              JOINT RightHand
              {
                OFFSET -0.0001 27.1163 0.0000
                CHANNELS 3 Yrotation Xrotation Zrotation
                JOINT RightHandIndex1
                {
                  OFFSET 2.4368 7.6820 0.0980
                  CHANNELS 3 Yrotation Xrotation Zrotation
                  JOINT RightHandIndex2
                  {
                    OFFSET 0.0000 4.3581 0.0000
                    CHANNELS 3 Yrotation Xrotation Zrotation
                    JOINT RightHandIndex3
                    {
                      OFFSET 0.0000 2.6812 0.0000
                      CHANNELS 3 Yrotation Xrotation Zrotation
                      End Site
                      {
                        OFFSET 0.0000 1.3566 0.0000
                      }
                    }
                  }
                }
                JOINT RightHandMiddle1
                {
                  OFFSET 0.5185 7.7415 0.0980
                  CHANNELS 3 Yrotation Xrotation Zrotation
                  JOINT RightHandMiddle2
                  {
                    OFFSET 0.0000 4.4741 0.0000
                    CHANNELS 3 Yrotation Xrotation Zrotation
                    JOINT RightHandMiddle3
                    {
                      OFFSET 0.0000 2.9510 0.0000
                      CHANNELS 3 Yrotation Xrotation Zrotation
                      End Site
                      {
                        OFFSET 0.0000 1.4991 0.0000
                      }
                    }
                  }
                }
                JOINT RightHandPinky1
                {
                  OFFSET -2.9845 6.6773 0.0980
                  CHANNELS 3 Yrotation Xrotation Zrotation
                  JOINT RightHandPinky2
                  {
                    OFFSET 0.0000 3.3815 0.0000
                    CHANNELS 3 Yrotation Xrotation Zrotation
                    JOINT RightHandPinky3
                    {
                      OFFSET 0.0000 2.1255 0.0000
                      CHANNELS 3 Yrotation Xrotation Zrotation
                      End Site
                      {
                        OFFSET 0.0000 1.1205 0.0000
                      }
                    }
                  }
                }
                JOINT RightHandRing1
                {
                  OFFSET -1.3706 7.4277 0.0980
                  CHANNELS 3 Yrotation Xrotation Zrotation
                  JOINT RightHandRing2
                  {
                    OFFSET 0.0000 4.1790 0.0000
                    CHANNELS 3 Yrotation Xrotation Zrotation
                    JOINT RightHandRing3
                    {
                      OFFSET 0.0000 2.6951 0.0000
                      CHANNELS 3 Yrotation Xrotation Zrotation
                      End Site
                      {
                        OFFSET 0.0000 1.3500 0.0000
                      }
                    }
                  }
                }
                JOINT RightHandThumb1
                {
                  OFFSET 2.6510 1.9781 0.0896
                  CHANNELS 3 Yrotation Xrotation Zrotation
                  JOINT RightHandThumb2
                  {
                    OFFSET 0.0000 3.7695 0.0000
                    CHANNELS 3 Yrotation Xrotation Zrotation
                    JOINT RightHandThumb3
                    {
                      OFFSET 0.0000 2.8611 0.0000
                      CHANNELS 3 Yrotation Xrotation Zrotation
                      End Site
                      {
                        OFFSET 0.0000 1.7295 0.0000
                      }
                    }
                  }
                }
              }
            }
          }
        }
      }
    }
  }
  JOINT LeftUpLeg
  {
    OFFSET 7.6424 0.0000 0.0000
    CHANNELS 3 Yrotation Xrotation Zrotation
    JOINT LeftLeg
    {
      OFFSET 0.0000 40.7593 0.0000
      CHANNELS 3 Yrotation Xrotation Zrotation
      JOINT LeftFoot
      {
        OFFSET 0.0000 40.8537 0.0000
        CHANNELS 3 Yrotation Xrotation Zrotation
        JOINT LeftToeBase
        {
          OFFSET 0.0000 13.7494 0.0000
          CHANNELS 3 Yrotation Xrotation Zrotation
          End Site
          {
            OFFSET 0.0000 3.5000 0.0000
          }
        }
      }
    }
  }
  JOINT RightUpLeg
  {
    OFFSET -7.6424 0.0000 0.0000
    CHANNELS 3 Yrotation Xrotation Zrotation
    JOINT RightLeg
    {
      OFFSET 0.0000 40.7593 0.0000
      CHANNELS 3 Yrotation Xrotation Zrotation
      JOINT RightFoot
      {
        OFFSET 0.0000 40.8537 0.0000
        CHANNELS 3 Yrotation Xrotation Zrotation
        JOINT RightToeBase
        {
          OFFSET 0.0000 13.7494 0.0000
          CHANNELS 3 Yrotation Xrotation Zrotation
          End Site
          {
            OFFSET 0.0000 3.5000 0.0000
          }
        }
      }
    }
  }
}
MOTION
Frames: 4
Frame Time: 0.033333
1.0745 88.3667 3.3479 9.0683 -5.5707 0.7570 2.2708 0.8045 1.6358 2.2723 0.8051 1.6369 2.2777 0.8069 1.6408 98.2666 90.0000 0.0000 -29.4527 80.0272 -25.2260 24.2528 65.8075 104.6492 -22.7988 -3.5258 50.8783 16.7222 19.3316 -4.8761 -0.0001 9.0956 -0.0005 -0.0001 6.0631 -0.0012 10.1035 40.7597 -17.3713 -0.0001 13.0488 -0.0001 0.0000 8.7012 -0.0001 -24.1409 17.0995 -41.0334 -0.0003 12.9653 0.0004 0.0000 8.6464 -0.0006 -19.2163 30.0292 -36.6093 0.0000 17.7210 0.0000 0.0000 11.8183 -0.0002 39.9889 34.6116 45.4401 2.7344 -17.1758 -19.2156 -0.0014 0.4050 -0.4050 1.7970 -3.7509 2.4856 1.7970 -3.7509 2.4856 48.7290 84.6850 162.4109 54.2502 78.1070 51.1920 -63.3191 58.8775 -132.1935 7.1265 -6.4638 -48.8813 4.9398 30.6817 6.2564 0.0000 19.5792 -0.0001 0.0000 13.0592 0.0002 22.8370 36.5703 24.4618 0.0000 26.9366 -0.0001 0.0000 17.9762 0.0000 46.2029 -3.0468 49.8229 0.0000 22.7321 0.0001 0.0000 15.1658 0.0002 34.1781 23.5996 36.9767 0.0000 34.5293 -0.0001 0.0000 23.0576 -0.0001 -15.3280 36.3489 -31.2101 -1.5246 -13.0563 15.3124 0.0035 0.6373 0.6373 -4.3522 5.8129 177.6472 0.0044 -5.8754 0.0745 0.0585 71.0065 0.7919 0.0000 25.3510 0.0000 -6.3934 5.9595 179.0423 -0.0239 -9.6033 -0.0832 8.3127 73.9815 -0.0578 0.0000 26.0695 -0.0001
1.0116 88.3693 3.2502 9.0878 -5.6361 0.7449 2.2357 0.8254 1.6098 2.2371 0.8260 1.6109 2.2424 0.8279 1.6147 98.1190 90.0000 0.0000 -28.5643 80.1104 -23.9142 24.4523 65.5754 104.9368 -22.7556 -3.2279 50.9199 14.5405 16.3476 -5.9646 0.0001 8.1812 0.0004 0.0000 5.4533 -0.0006 9.7753 40.8896 -17.3655 0.0002 11.7590 0.0012 0.0002 7.8409 0.0008 -23.9794 17.0991 -40.9642 -0.0003 13.1311 0.0003 0.0000 8.7570 -0.0006 -18.8168 30.5576 -35.7217 -0.0004 17.4989 -0.0015 -0.0002 11.6700 -0.0011 39.8945 34.6991 45.4172 2.7335 -17.1770 -19.3163 -0.0017 0.4383 -0.4383 1.8265 -3.7128 2.5109 1.8265 -3.7128 2.5109 49.0390 84.6732 162.6864 53.7822 78.3135 50.8163 -63.2932 58.7569 -132.1384 7.1628 -6.6157 -49.0029 5.0298 30.6021 6.3752 0.0000 19.4339 0.0000 0.0000 12.9622 0.0002 22.8894 36.5954 24.4954 0.0000 26.6137 0.0000 0.0000 17.7603 0.0000 45.6784 -3.1029 49.2101 0.0000 23.1085 0.0001 0.0000 15.4174 0.0002 34.0814 23.5873 36.8698 0.0000 34.4751 0.0000 0.0000 23.0213 0.0000 -15.3231 36.3207 -31.2127 -1.4685 -12.8483 15.3830 0.0047 0.7367 0.7367 -4.3227 5.7356 177.6951 0.0039 -6.0183 0.0766 0.0552 71.0102 0.7444 0.0000 25.3510 0.0000 -6.3696 5.9417 179.0901 -0.0192 -9.6351 -0.0799 8.2080 73.9428 -0.2018 0.0000 26.0616 -0.0001
0.9473 88.3719 3.1609 9.1295 -5.7196 0.7530 2.2041 0.8488 1.5753 2.2054 0.8494 1.5763 2.2107 0.8513 1.5801 97.9966 90.0000 0.0000 -27.6011 80.1078 -22.5518 25.3217 65.6208 105.7750 -22.4811 -3.5103 51.0858 13.4986 14.1616 -6.8529 0.0000 8.0653 0.0001 0.0000 5.3760 -0.0008 9.3910 40.8098 -17.4169 -0.0007 11.3979 -0.0035 -0.0003 7.6000 -0.0023 -23.9398 17.1306 -40.8877 -0.0003 12.9816 0.0004 0.0000 8.6573 -0.0006 -18.9522 30.8324 -35.2721 -0.0001 17.1645 -0.0004 -0.0001 11.4468 -0.0004 39.7794 34.7964 45.3245 2.7565 -17.2354 -19.1190 -0.0011 0.3495 -0.3495 1.7152 -3.6374 2.5431 1.7152 -3.6374 2.5431 48.7186 84.6984 162.3335 53.4431 78.4962 50.5918 -63.6228 58.7932 -132.3522 7.2940 -6.6741 -49.2692 5.1336 30.4959 6.4678 0.0000 19.3983 -0.0001 0.0000 12.9384 0.0002 22.9662 36.5521 24.5450 0.0000 26.5926 0.0000 0.0000 17.7461 0.0000 45.4466 -3.1281 48.6809 0.0000 23.3790 0.0001 0.0000 15.5981 0.0002 34.0281 23.5922 36.7706 0.0000 34.4759 0.0000 0.0000 23.0219 0.0000 -15.2279 36.3862 -31.1327 -1.4699 -12.8466 15.2948 0.0044 0.7076 0.7077 -4.3050 5.7188 177.7231 0.0030 -6.0796 0.0793 0.0650 70.9756 0.6949 0.0000 25.3510 0.0000 -6.3786 5.9208 179.1152 -0.0159 -9.7187 -0.0791 8.0838 73.9354 -0.3611 0.0000 26.0557 -0.0001
0.8849 88.3728 3.0806 9.1594 -5.8003 0.7794 2.1678 0.8640 1.5424 2.1691 0.8645 1.5433 2.1743 0.8665 1.5471 97.8529 90.0000 0.0000 -27.1445 80.0306 -21.6840 26.5131 65.6679 106.7904 -22.3774 -3.4245 51.1416 12.4174 10.8008 -7.7854 0.0000 7.8913 0.0001 0.0000 5.2600 -0.0008 9.2091 40.7148 -17.2877 0.0000 11.1643 0.0001 0.0001 7.4441 0.0000 -23.9493 17.0543 -40.7896 -0.0003 13.1052 0.0004 0.0000 8.7397 -0.0006 -19.0415 31.1367 -34.8433 0.0000 16.8127 0.0000 0.0000 11.2120 -0.0002 39.7412 34.8323 45.3257 2.7774 -17.2975 -19.2248 -0.0011 0.3610 -0.3610 1.4828 -3.5226 2.6082 1.4828 -3.5226 2.6082 48.1964 84.7673 161.7494 53.2311 78.7138 50.4350 -63.5041 58.7256 -132.2060 7.7021 -6.7581 -49.4469 5.1515 30.3908 6.5843 0.0000 19.4173 0.0000 0.0000 12.9511 0.0002 22.9149 36.5951 24.4974 0.0000 26.5261 0.0000 0.0000 17.7017 0.0000 45.3129 -2.8847 48.2563 0.0000 23.1763 0.0001 0.0000 15.4627 0.0002 33.8612 23.7191 36.6159 0.0000 34.3068 -0.0001 0.0000 22.9086 0.0000 -15.2044 36.4217 -31.0964 -1.4799 -12.8852 15.2949 0.0042 0.6936 0.6937 -4.2962 5.7194 177.7319 0.0021 -6.1103 0.0799 0.0350 70.9247 0.6212 0.0000 25.3510 0.0000 -6.3853 5.8771 179.1216 -0.0140 -9.8495 -0.0794 7.9713 73.9542 -0.5019 0.0000 26.0524 -0.0001
